<svg width="180" height="180" viewBox="0 0 180 180" fill="none" xmlns="http://www.w3.org/2000/svg">
  <!-- CK apple-touch-icon in vibrant purple (#7C3AED) -->
  
  <!-- Background circle -->
  <circle cx="90" cy="90" r="90" fill="#7C3AED"/>
  
  <!-- C shape - flowing curve with sharp tip -->
  <path d="M22.5 45C22.5 26.0087 37.5087 11 56.5 11H67.5C69.9853 11 72 13.0147 72 15.5V26.25C72 28.7353 69.9853 30.75 67.5 30.75H60C59.1716 30.75 58.5 31.4216 58.5 32.25V38.25C58.5 39.0784 59.1716 39.75 60 39.75H67.5C69.9853 39.75 72 41.7647 72 44.25V55C72 57.4853 69.9853 59.5 67.5 59.5H56.5C37.5087 59.5 22.5 44.4913 22.5 25.5V45Z" fill="white"/>
  
  <!-- C's extended tip that flows into K -->
  <path d="M72 45L78.75 41.25L84 41.25" stroke="white" stroke-width="4.5" stroke-linecap="round"/>
  
  <!-- K shape - vertical line with diagonal extensions -->
  <path d="M84 15C84 13.0147 85.9853 11 88.5 11H101.25C103.735 11 105.75 13.0147 105.75 15.5V90C105.75 92.4853 103.735 94.5 101.25 94.5H88.5C85.9853 94.5 84 92.4853 84 90V15Z" fill="white"/>
  
  <!-- K diagonal lines - upper and lower with sharp angles -->
  <path d="M96 11L157.5 7.5" stroke="white" stroke-width="4.5" stroke-linecap="round"/>
  <path d="M96 94.5L157.5 105" stroke="white" stroke-width="4.5" stroke-linecap="round"/>
  
  <!-- Connecting elements for unified flow -->
  <path d="M78.75 41.25H84" stroke="white" stroke-width="3" stroke-linecap="round"/>
  <path d="M90 33.75L84 41.25" stroke="white" stroke-width="3" stroke-linecap="round"/>
</svg>
