<svg width="32" height="32" viewBox="0 0 32 32" fill="none" xmlns="http://www.w3.org/2000/svg">
  <!-- CK favicon in vibrant purple (#7C3AED) -->
  
  <!-- C shape - flowing curve with sharp tip -->
  <path d="M4 8C4 5.79086 5.79086 4 8 4H12C13.1046 4 14 4.89543 14 6V7C14 8.10457 13.1046 9 12 9H10.6667C10.2985 9 10 9.29848 10 9.66667V10.3333C10 10.7015 10.2985 11 10.6667 11H12C13.1046 11 14 11.8954 14 13V14C14 15.1046 13.1046 16 12 16H8C5.79086 16 4 14.2091 4 12V8Z" fill="#7C3AED"/>
  
  <!-- C's extended tip that flows into K -->
  <path d="M14 12L16 11L18 11" stroke="#7C3AED" stroke-width="2" stroke-linecap="round"/>
  
  <!-- K shape - vertical line with diagonal extensions -->
  <path d="M18 6C18 4.89543 18.8954 4 20 4H22.6667C23.7712 4 24.6667 4.89543 24.6667 6V16C24.6667 17.1046 23.7712 18 22.6667 18H20C18.8954 18 18 17.1046 18 16V6Z" fill="#7C3AED"/>
  
  <!-- K diagonal lines - upper and lower with sharp angles -->
  <path d="M21.3333 4L28 2" stroke="#7C3AED" stroke-width="2" stroke-linecap="round"/>
  <path d="M21.3333 18L28 20" stroke="#7C3AED" stroke-width="2" stroke-linecap="round"/>
  
  <!-- Connecting elements for unified flow -->
  <path d="M14 11H18" stroke="#7C3AED" stroke-width="1.5" stroke-linecap="round"/>
  <path d="M16 9L18 11" stroke="#7C3AED" stroke-width="1.5" stroke-linecap="round"/>
</svg>
